<svg width="86" height="86" viewBox="0 0 86 86" fill="none" xmlns="http://www.w3.org/2000/svg">
<path d="M57.3333 39.4167C63.2817 39.4167 68.0475 34.6151 68.0475 28.6667C68.0475 22.7184 63.2817 17.9167 57.3333 17.9167C51.385 17.9167 46.5833 22.7184 46.5833 28.6667C46.5833 34.6151 51.385 39.4167 57.3333 39.4167ZM28.6667 39.4167C34.615 39.4167 39.3808 34.6151 39.3808 28.6667C39.3808 22.7184 34.615 17.9167 28.6667 17.9167C22.7183 17.9167 17.9167 22.7184 17.9167 28.6667C17.9167 34.6151 22.7183 39.4167 28.6667 39.4167ZM28.6667 46.5834C20.3175 46.5834 3.58334 50.7759 3.58334 59.1251V68.0834H53.75V59.1251C53.75 50.7759 37.0158 46.5834 28.6667 46.5834ZM57.3333 46.5834C56.2942 46.5834 55.1117 46.6551 53.8575 46.7626C58.0142 49.7726 60.9167 53.8218 60.9167 59.1251V68.0834H82.4167V59.1251C82.4167 50.7759 65.6825 46.5834 57.3333 46.5834Z" fill="#2C39AB"/>
</svg>
